<?xml version="1.0" encoding="UTF-8"?>
<svg id="Lager_2" data-name="Lager 2" xmlns="http://www.w3.org/2000/svg" viewBox="0 0 218.91 88.34">
  <defs>
    <style>
      .cls-1 {
        fill: #e2b7c3;
      }
    </style>
  </defs>
  <g id="Lager_1-2" data-name="Lager 1">
    <g>
      <path class="cls-1" d="M36.81,42.95h1.43c1.52,0,2.47,1.26,2.13,2.53-2.41,9.07-10.88,15.65-20.73,15.22S.51,51.22.02,41.18c-.56-11.78,8.87-21.48,20.53-21.48,9.46,0,17.47,6.45,19.82,15.17.34,1.27-.62,2.53-1.94,2.53h-1.63c-.88,0-1.65-.58-1.91-1.43-1.91-6.35-7.9-10.97-14.91-10.71-7.7.29-14.1,6.57-14.42,14.28-.36,8.54,6.52,15.64,14.99,15.64,6.76,0,12.48-4.53,14.34-10.77.26-.86,1.02-1.45,1.91-1.45Z"/>
      <path class="cls-1" d="M67.25,21.75v1.56c0,1.02-.77,1.85-1.78,1.98-7.41.94-13.14,7.23-13.14,14.88v18.17c0,1.1-.9,2-2,2h-1.55c-1.1,0-2-.9-2-2v-18.17c0-10.59,7.99-19.27,18.29-20.42,1.17-.13,2.19.82,2.19,2Z"/>
      <path class="cls-1" d="M109.37,42.95h-1.41c-.89,0-1.66.6-1.91,1.45-1.86,6.24-7.59,10.78-14.35,10.78-.97,0-1.95-.15-2.92-.3l21.09-21.1c.6-.6.76-1.5.41-2.27-3.25-7.01-10.38-11.81-18.58-11.81-11.65,0-21.09,9.7-20.52,21.48.49,10.33,9.87,19.39,20.21,19.54,9.6.15,17.77-6.35,20.13-15.23.34-1.28-.61-2.54-2.15-2.54ZM76.77,38.78c.55-6.12,4.96-11.35,10.88-12.97,6.65-1.83,13.03,1.06,16.43,5.97l-20.78,20.77c-4.33-2.94-7.05-8.01-6.53-13.77Z"/>
      <path class="cls-1" d="M159.95,22.15v64.19c0,1.1-.9,2-2,2h-1.55c-1.1,0-2-.9-2-2v-32.06c-4.46,4.72-11.14,7.34-18.3,6.18-10-1.62-17.17-10.57-17.17-20.7v-17.6c0-1.1.9-2,2-2h1.55c1.1,0,2,.9,2,2v17.64c0,7.32,5.09,13.87,12.3,15.15,9.44,1.67,17.62-5.63,17.62-14.76v-18.03c0-1.1.9-2,2-2h1.55c1.1,0,2,.9,2,2Z"/>
      <path class="cls-1" d="M204.87,60.35h-1.55c-1.1,0-2-.9-2-2v-4.07c-4.46,4.72-11.14,7.33-18.28,6.18-8.97-1.44-16.02-8.84-17.06-17.86-1.49-12.97,9.18-23.83,22.05-22.83,10.38.81,18.83,10.5,18.83,20.92v17.67c0,1.1-.9,2-2,2ZM201.29,41.23c.62-9.08-6.86-16.56-15.94-15.94-7.02.48-12.91,5.92-13.82,12.9-1.28,9.79,7.06,18.13,16.86,16.86,6.98-.91,12.42-6.8,12.9-13.82Z"/>
      <circle class="cls-1" cx="215.18" cy="56.62" r="3.73"/>
      <path class="cls-1" d="M74.54,16.85c2.74.48,6.75-.5,10.85-4.98s5.19-14.48,3.99-11.25c-.59,1.59-7.29,4.27-10.85,4.98-5.08,1.01-9.41,10.29-3.99,11.25Z"/>
    </g>
  </g>
</svg>