<?xml version="1.0" encoding="UTF-8"?>
<svg id="Lager_2" data-name="Lager 2" xmlns="http://www.w3.org/2000/svg" viewBox="0 0 260.29 90.13">
  <defs>
    <style>
      .cls-1 {
        fill: none;
      }

      .cls-2 {
        fill: #fff;
      }
    </style>
  </defs>
  <g id="Lager_1-2" data-name="Lager 1">
    <path id="c" class="cls-2" d="M25.87,44.84c0-12.8,8.9-20.29,20.67-20.29,6.53,0,11.45,2.69,12.88,3.57.26.16.41.46.38.77l-.35,3.91c-.05.6-.72.95-1.23.63-2.04-1.24-6.62-3.63-11.56-3.63-7.81,0-14.21,5.38-14.21,14.91s6.08,15.17,14.08,15.17c5.75,0,9.65-2.34,11.2-3.48.41-.3.99-.17,1.22.29l1.83,3.61c.19.38.07.85-.29,1.07-4.54,2.83-9.25,3.88-13.96,3.88-11.78,0-20.67-7.62-20.67-20.41Z"/>
    <path id="r" class="cls-2" d="M85.07,47.91h-1.36c-.45,0-.82.37-.82.82v15.19c0,.45-.37.82-.82.82h-4.76c-.45,0-.82-.37-.82-.82V25.89c0-.45.37-.82.82-.82h7.5c8.96,0,14.85,4.22,14.85,11.2,0,4.15-2.47,7.23-5.3,8.68-.54.28-.59,1.02-.1,1.38,4.32,3.17,7.67,12.53,13.85,13.37.47.06.79.53.67.99l-.9,3.79c-.09.38-.44.66-.83.64-12.01-.6-12.62-17.2-21.98-17.2ZM85.45,30.06h-1.74c-.45,0-.82.37-.82.82v11.29c0,.45.37.82.82.82h1.93c4.54,0,7.68-2.37,7.68-6.59s-3.26-6.34-7.87-6.34Z"/>
    <path id="e" class="cls-2" d="M123.27,25.07h19.09c.45,0,.82.37.82.82v3.54c0,.45-.37.82-.82.82h-12.69c-.45,0-.82.37-.82.82v8.34c0,.45.37.82.82.82h8.85c.45,0,.82.37.82.82v3.61c0,.45-.37.82-.82.82h-8.85c-.45,0-.82.37-.82.82v12.37c0,.45.37.82.82.82h17.59c.53,0,.92.5.8,1.02l-.88,3.61c-.09.37-.42.63-.8.63h-23.11c-.45,0-.82-.37-.82-.82V25.89c0-.45.37-.82.82-.82ZM134.62,13.48l4.68.89c.62.12.88.86.47,1.34l-3.96,4.65c-.16.18-.38.29-.62.29h-3.06c-.59,0-.98-.6-.76-1.14l2.33-5.54c.15-.36.53-.56.91-.49Z"/>
    <path id="y" class="cls-2" d="M186.01,25.07h5.03c.64,0,1.04.71.7,1.26l-14.39,23.06c-.08.13-.12.28-.12.43v14.11c0,.45-.37.82-.82.82h-4.82c-.45,0-.82-.37-.82-.82v-13.86c0-.15-.04-.3-.12-.43l-14.52-23.31c-.34-.55.05-1.25.7-1.25h4.91c.29,0,.55.15.7.39l10.83,17.83c.32.53,1.09.53,1.41,0l10.65-17.82c.15-.25.42-.4.7-.4Z"/>
    <path id="a" class="cls-2" d="M228.33,64.28l-3.46-7.32c-.14-.29-.42-.47-.74-.47h-17.64c-.32,0-.61.19-.74.47l-3.4,7.31c-.13.29-.42.47-.74.47h-4.89c-.6,0-1-.63-.74-1.18l18.96-39.59h.7l18.96,39.59c.26.54-.14,1.18-.74,1.18h-4.77c-.32,0-.61-.18-.74-.47ZM209.35,51.43h11.9c.6,0,1-.62.74-1.17l-6-12.96c-.29-.64-1.2-.63-1.49,0l-5.9,12.96c-.25.54.15,1.16.75,1.16Z"/>
    <path id="fz4" class="cls-1" d="M147.63,84.89h-17.59c-.45,0-.82-.37-.82-.82v-12.38c0-.45.37-.82.82-.82h8.86c.45,0,.82-.37.82-.82v-3.61c0-.45-.37-.82-.82-.82h-8.86c-.28,0-.53-.14-.68-.36h-6.54v24.05c0,.46.37.82.82.82h23.11c.38,0,.71-.26.8-.62l.88-3.61c.12-.52-.27-1.01-.8-1.01Z"/>
    <path id="fz3" class="cls-1" d="M127.63,19.63h-17.59c-.45,0-.82-.37-.82-.82V6.43c0-.45.37-.82.82-.82h8.86c.45,0,.82-.37.82-.82V1.18c0-.45-.37-.82-.82-.82h-8.86c-.28,0-.53-.14-.68-.36h-6.54v24.05c0,.46.37.82.82.82h23.11c.38,0,.71-.26.8-.62l.88-3.61c.12-.52-.27-1.01-.8-1.01Z"/>
    <path id="fz2" class="cls-1" d="M255.05,40.34v17.59c0,.45-.37.82-.82.82h-12.38c-.45,0-.82-.37-.82-.82v-8.86c0-.45-.37-.82-.82-.82h-3.61c-.45,0-.82.37-.82.82v8.86c0,.28-.14.53-.36.68v6.54h24.05c.46,0,.82-.37.82-.82v-23.11c0-.38-.26-.71-.62-.8l-3.61-.88c-.52-.12-1.01.27-1.01.8Z"/>
    <path id="fz1" class="cls-1" d="M19.63,31.99v17.59c0,.45-.37.82-.82.82H6.43c-.45,0-.82-.37-.82-.82v-8.86c0-.45-.37-.82-.82-.82H1.18c-.45,0-.82.37-.82.82v8.86c0,.28-.14.53-.36.68v6.54h24.05c.46,0,.82-.37.82-.82v-23.11c0-.38-.26-.71-.62-.8l-3.61-.88c-.52-.12-1.01.27-1.01.8Z"/>
  </g>
</svg>