<?xml version="1.0" encoding="UTF-8"?>
<svg id="Lager_2" data-name="Lager 2" xmlns="http://www.w3.org/2000/svg" viewBox="0 0 211.91 81.54">
  <defs>
    <style>
      .cls-1 {
        fill: #fff;
      }
    </style>
  </defs>
  <g id="Lager_1-2" data-name="Lager 1">
    <path class="cls-1" d="M36.81,36.15h1.43c1.52,0,2.47,1.26,2.13,2.53-2.41,9.07-10.88,15.65-20.73,15.22C9.59,53.46.51,44.42.02,34.38-.54,22.59,8.89,12.9,20.55,12.9c9.46,0,17.47,6.45,19.82,15.17.34,1.27-.62,2.53-1.94,2.53h-1.63c-.88,0-1.65-.58-1.91-1.43-1.91-6.35-7.9-10.97-14.91-10.71-7.7.29-14.1,6.57-14.42,14.28-.36,8.54,6.52,15.64,14.99,15.64,6.76,0,12.48-4.53,14.34-10.77.26-.86,1.02-1.45,1.91-1.45Z"/>
    <path class="cls-1" d="M65.25,14.95v1.56c0,1.02-.77,1.85-1.78,1.98-7.41.94-13.14,7.23-13.14,14.88v18.17c0,1.1-.9,2-2,2h-1.55c-1.1,0-2-.9-2-2v-18.17c0-10.59,7.99-19.27,18.29-20.42,1.17-.13,2.19.82,2.19,2Z"/>
    <path class="cls-1" d="M86.77,48.07c.97.15,1.95.3,2.92.3,6.76,0,12.48-4.53,14.34-10.77.26-.86,1.03-1.45,1.92-1.45h1.4c1.54,0,2.49,1.26,2.15,2.53-2.36,8.88-10.54,15.38-20.13,15.24-10.34-.16-19.72-9.21-20.21-19.54-.56-11.78,8.87-21.48,20.53-21.48,8.2,0,15.33,4.79,18.57,11.81.35.76.19,1.67-.4,2.27l-21.1,21.1ZM83.63,0h1.78c1.78,0,2.67,2.15,1.42,3.41l-9.3,9.35c-.38.38-.89.59-1.42.59h-1.73c-1.78,0-2.67-2.14-1.42-3.41L82.21.59c.38-.38.89-.59,1.42-.59ZM81.3,45.75l20.77-20.77c-3.4-4.91-9.77-7.8-16.42-5.97-5.93,1.63-10.33,6.85-10.89,12.97-.52,5.76,2.21,10.83,6.54,13.77Z"/>
    <path class="cls-1" d="M154.95,15.35v64.19c0,1.1-.9,2-2,2h-2.55c-.55,0-1-.45-1-1v-33.06c-4.46,4.72-11.14,7.34-18.3,6.18-10-1.62-17.17-10.57-17.17-20.7V15.35c0-1.1.9-2,2-2h1.55c1.1,0,2,.9,2,2v17.64c0,7.32,5.09,13.87,12.3,15.15,9.44,1.67,17.62-5.63,17.62-14.76V15.35c0-1.1.9-2,2-2h1.55c1.1,0,2,.9,2,2Z"/>
    <path class="cls-1" d="M197.87,53.55h-1.55c-1.1,0-2-.9-2-2v-4.07c-4.46,4.72-11.14,7.33-18.28,6.18-8.97-1.44-16.02-8.84-17.06-17.86-1.49-12.97,9.18-23.83,22.05-22.83,10.38.81,18.83,10.5,18.83,20.92v17.67c0,1.1-.9,2-2,2ZM194.29,34.42c.62-9.08-6.86-16.56-15.94-15.94-7.02.48-12.91,5.92-13.82,12.9-1.28,9.79,7.06,18.13,16.86,16.86,6.98-.91,12.42-6.8,12.9-13.82Z"/>
    <circle class="cls-1" cx="208.18" cy="49.82" r="3.73"/>
  </g>
</svg>